# xmcd
#
# Track frame offsets:
#	150
#	16272
#	29559
#	44127
#	61997
#	75656
#	90589
#	108566
#	120679
#	138365
#	151957
#
# Disc length: 2255 seconds
#
# Revision: 1
# Processed by: cddbd v1.5.2PL0 Copyright (c) Steve Scherf et al.
# Submitted via: audiograbber 1.81.03
#
DISCID=8e08cd0b
DTITLE=RG`Stark - Not Crazy Tonight
DYEAR=2008
DGENRE=Rock
TTITLE0=Mineral Wells
TTITLE1=Coyote
TTITLE2=Secret Girl
TTITLE3=The`Brutal Truth
TTITLE4=Narcocorrido Nuevo Laredo
TTITLE5=Lorena
TTITLE6=She Comes And Goes
TTITLE7=Monterrey
TTITLE8=Too Proud
TTITLE9=Abbeville
TTITLE10=Not Crazy Tonight
EXTD=
EXTT0=
EXTT1=
EXTT2=
EXTT3=
EXTT4=
EXTT5=
EXTT6=
EXTT7=
EXTT8=
EXTT9=
EXTT10=
PLAYORDER=
